<svg xmlns="http://www.w3.org/2000/svg" width="207.288" height="198.176" viewBox="0 0 207.288 198.176"><g transform="translate(-856 -207)"><g transform="translate(861.887 233.476)"><path d="M281.287,168.314c-.159.476-.4.951-.555,1.506h-4.677c.476-1.031.951-2.061,1.348-3.092a87.983,87.983,0,0,0,4.756-15.537,83.265,83.265,0,0,0,0-32.342,81.6,81.6,0,0,0-4.677-15.537c-3.726-9.116-8.244-17.6-14.982-24.812a107.428,107.428,0,0,1,9.433,11.256,71.27,71.27,0,0,1,7.531,12.683,85.877,85.877,0,0,1,7.451,32.5A86.261,86.261,0,0,1,281.287,168.314Z" transform="translate(-97.672 -74.061)" fill="#00bf52"/><path d="M289.371,168.58h-4.915a90.841,90.841,0,0,0,4.122-14.427,98.406,98.406,0,0,0,1.823-18.074,92.478,92.478,0,0,0-6.976-35.434c-4.2-10.226-9.2-19.659-16.726-27.745a151.026,151.026,0,0,1,10.622,12.6,80.5,80.5,0,0,1,8.4,14.189,99.422,99.422,0,0,1,5.945,17.757,92.212,92.212,0,0,1,2.378,18.629A96.686,96.686,0,0,1,289.371,168.58Z" transform="translate(-98.543 -72.9)" fill="#008f3d"/><path d="M68.119,168.314c.159.476.4.951.555,1.506h4.677c-.476-1.031-.951-2.061-1.348-3.092a87.984,87.984,0,0,1-4.756-15.537,83.266,83.266,0,0,1,0-32.342,81.6,81.6,0,0,1,4.677-15.537C75.65,94.2,80.168,85.714,86.906,78.5a107.427,107.427,0,0,0-9.433,11.256,71.271,71.271,0,0,0-7.531,12.683,85.877,85.877,0,0,0-7.451,32.5A87.766,87.766,0,0,0,68.119,168.314Z" transform="translate(-56.204 -74.061)" fill="#00bf52"/><path d="M59.271,168.58h4.915a90.841,90.841,0,0,1-4.122-14.427,98.41,98.41,0,0,1-1.823-18.074,92.478,92.478,0,0,1,6.976-35.434c4.2-10.226,9.2-19.659,16.726-27.745A151.026,151.026,0,0,0,71.32,85.5a80.5,80.5,0,0,0-8.4,14.189,99.423,99.423,0,0,0-5.945,17.757,92.213,92.213,0,0,0-2.378,18.629A98.729,98.729,0,0,0,59.271,168.58Z" transform="translate(-54.569 -72.9)" fill="#008f3d"/></g><path d="M53.1,193.6H250.722" transform="translate(807.622 135.9)" fill="none" stroke="#004d21" stroke-miterlimit="10" stroke-width="2.646"/><g transform="translate(2 1.216)"><path d="M12.94-1.22a6.522,6.522,0,0,1-1.78.92A7.481,7.481,0,0,1,8.5.16a7.746,7.746,0,0,1-4-1A6.766,6.766,0,0,1,1.9-3.53,7.769,7.769,0,0,1,1-7.24a8.494,8.494,0,0,1,.9-3.96,6.642,6.642,0,0,1,2.52-2.71,7.139,7.139,0,0,1,3.74-.97,8.2,8.2,0,0,1,2.48.36,8.639,8.639,0,0,1,2,.9L11.5-10.88a5.309,5.309,0,0,0-3.24-1.2,3.858,3.858,0,0,0-2.1.62A4.489,4.489,0,0,0,4.6-9.77,4.892,4.892,0,0,0,4.02-7.4a5.457,5.457,0,0,0,.54,2.49A4.011,4.011,0,0,0,6.1-3.24a4.461,4.461,0,0,0,2.34.6,5.107,5.107,0,0,0,1.94-.35,4.266,4.266,0,0,0,1.36-.83Zm2-6.12a7.326,7.326,0,0,1,1.01-3.74,7.633,7.633,0,0,1,2.74-2.77,7.2,7.2,0,0,1,3.75-1.03,7.2,7.2,0,0,1,3.75,1.03,7.793,7.793,0,0,1,2.76,2.77,7.217,7.217,0,0,1,1.03,3.74,7.184,7.184,0,0,1-1.03,3.76A7.682,7.682,0,0,1,26.19-.85,7.309,7.309,0,0,1,22.44.16,7.292,7.292,0,0,1,18.68-.85a7.548,7.548,0,0,1-2.73-2.73A7.292,7.292,0,0,1,14.94-7.34Zm3,0a4.717,4.717,0,0,0,.61,2.36,4.592,4.592,0,0,0,1.66,1.71,4.442,4.442,0,0,0,2.33.63,4.216,4.216,0,0,0,2.26-.63,4.459,4.459,0,0,0,1.6-1.7,4.892,4.892,0,0,0,.58-2.37,4.858,4.858,0,0,0-.6-2.4,4.566,4.566,0,0,0-1.63-1.71,4.3,4.3,0,0,0-2.29-.63,4.3,4.3,0,0,0-2.29.63,4.566,4.566,0,0,0-1.63,1.71A4.858,4.858,0,0,0,17.94-7.34Zm14.94-7.38h4.4a8.919,8.919,0,0,1,4.64,1.09,6.6,6.6,0,0,1,2.65,2.82A8.466,8.466,0,0,1,45.4-7.1a6.974,6.974,0,0,1-1,3.74A6.72,6.72,0,0,1,41.71-.87,7.985,7.985,0,0,1,38,0H32.88ZM37.5-2.8a5.232,5.232,0,0,0,3.58-1.16A4.209,4.209,0,0,0,42.4-7.3a4.79,4.79,0,0,0-.73-2.8,3.927,3.927,0,0,0-1.7-1.44,4.81,4.81,0,0,0-1.83-.4H35.78V-2.8ZM51.2-14.72V0H48.3V-14.72Zm17.06,0V.6h-.08L57.88-8.7,57.94,0H55V-15.3h.12L65.4-5.86l-.06-8.86ZM84-1.48a3.92,3.92,0,0,1-1.21.75,10.807,10.807,0,0,1-1.92.64,8.312,8.312,0,0,1-1.91.25,8.869,8.869,0,0,1-4.11-.91,6.619,6.619,0,0,1-2.73-2.52,7.027,7.027,0,0,1-.96-3.67,8.7,8.7,0,0,1,1.02-4.37,6.623,6.623,0,0,1,2.74-2.68,8.144,8.144,0,0,1,3.8-.89,10.2,10.2,0,0,1,2.52.3,9.261,9.261,0,0,1,2.08.78l-.94,2.7a7.25,7.25,0,0,0-1.59-.59,6.774,6.774,0,0,0-1.69-.27,5.145,5.145,0,0,0-3.67,1.2A4.67,4.67,0,0,0,74.16-7.2a4.439,4.439,0,0,0,.62,2.37,4.069,4.069,0,0,0,1.73,1.55,5.711,5.711,0,0,0,2.53.54,4.172,4.172,0,0,0,2.02-.38V-4.9H78.52V-7.7H84Z" transform="translate(884.607 350.084)" fill="#004d21"/><path d="M10.82-14.72v2.8H7.24V0H4.34V-11.92H.9v-2.8ZM21.56,0l-3.1-4.68H16.52V0h-2.9V-14.72h4.46a6.22,6.22,0,0,1,4.25,1.33,4.589,4.589,0,0,1,1.51,3.63,5.827,5.827,0,0,1-.57,2.55,4.23,4.23,0,0,1-1.75,1.87L24.94,0ZM16.52-7.48h2.06a2.05,2.05,0,0,0,1.72-.69,2.37,2.37,0,0,0,.54-1.49,2.827,2.827,0,0,0-.46-1.53,1.943,1.943,0,0,0-1.78-.73H16.52Zm20.86-7.24v2.8H30.24v3.14h6.32v2.8H30.24V-2.8h7.42V0H27.34V-14.72Zm13.32,0v2.8H43.56v3.14h6.32v2.8H43.56V-2.8h7.42V0H40.66V-14.72Z" transform="translate(979.607 350.084)" fill="#00bf52"/></g><path d="M247.584,177.363A100.839,100.839,0,0,1,237.2,197.5a98.617,98.617,0,0,1-8.64,11.256c-.951,1.11-1.982,2.22-3.012,3.329-2.3,2.378-4.756,4.677-7.293,6.9a98.121,98.121,0,0,1-8.561,6.579,99.636,99.636,0,0,1-18.232,10.067l-2.457.951c-.793.317-1.585.634-2.457.951l-2.457.872c-.793.317-1.665.555-2.457.793l-2.537.713-1.268.317a1.866,1.866,0,0,1-.634.159l-.634.159-2.537.634-1.268.317-.634.159-.634.079a105.674,105.674,0,0,1-41.538,0,102.528,102.528,0,0,1-46.453-22.592h0A91.171,91.171,0,0,1,75.963,212c-1.031-1.11-2.061-2.14-3.012-3.25a108.618,108.618,0,0,1-8.64-11.256,101.467,101.467,0,0,1-10.384-20.214,103.96,103.96,0,0,1-6.738-40.111A101.535,101.535,0,0,1,49.8,117.038a100.27,100.27,0,0,1,6.421-19.1,105.57,105.57,0,0,1,9.988-17.44C69.067,76.451,73.268,72.646,76.6,69h0c-8.086,8.72-13.476,18.866-18.074,29.885A101.781,101.781,0,0,0,52.9,117.593a100.891,100.891,0,0,0,0,39A96.216,96.216,0,0,0,58.6,175.3a100.892,100.892,0,0,0,12.763,22.116,107.914,107.914,0,0,0,8.878,10.226l1.031,1.031a100.2,100.2,0,0,0,31.312,20.531,101.781,101.781,0,0,0,18.708,5.628,100.081,100.081,0,0,0,38.843,0,101.781,101.781,0,0,0,18.708-5.628,100.2,100.2,0,0,0,31.312-20.531l1.031-1.031a91.237,91.237,0,0,0,8.878-10.226A100.893,100.893,0,0,0,242.828,175.3a96.217,96.217,0,0,0,5.707-18.708,100.892,100.892,0,0,0,0-39,101.781,101.781,0,0,0-5.628-18.708C238.389,87.866,233,77.72,224.913,69h0c7.927,8.4,15.7,18.232,20.452,28.854a103.583,103.583,0,0,1,2.22,79.508Z" transform="translate(808.857 161.385)" fill="#004d21"/><line x2="164.328" transform="translate(877.369 358.5)" fill="none" stroke="#004d21" stroke-miterlimit="10" stroke-width="2.721"/><g transform="translate(922.395 358.328)"><path d="M134.5,252.265v-9.275l20.927-7.61V231.1" transform="translate(-131.646 -230.545)" fill="none" stroke="#004d21" stroke-miterlimit="10" stroke-width="3.083"/><line y2="29.251" transform="translate(37.178 0.555)" fill="none" stroke="#004d21" stroke-miterlimit="10" stroke-width="3.083"/><line y2="20.61" transform="translate(23.781)" fill="none" stroke="#004d21" stroke-miterlimit="10" stroke-width="3.083"/><circle cx="2.854" cy="2.854" r="2.854" transform="translate(20.927 17.757)" fill="#00bf52" stroke="#004d21" stroke-miterlimit="10" stroke-width="2.951"/><circle cx="2.854" cy="2.854" r="2.854" transform="translate(34.324 26.952)" fill="#00bf52" stroke="#004d21" stroke-miterlimit="10" stroke-width="2.951"/><circle cx="2.854" cy="2.854" r="2.854" transform="translate(0 18.866)" fill="#00bf52" stroke="#004d21" stroke-miterlimit="10" stroke-width="2.951"/><path d="M215.548,252.265v-9.275l-20.848-7.61V231.1" transform="translate(-144.125 -230.545)" fill="none" stroke="#004d21" stroke-miterlimit="10" stroke-width="3.083"/><line y2="20.61" transform="translate(50.575)" fill="none" stroke="#004d21" stroke-miterlimit="10" stroke-width="3.083"/><circle cx="2.854" cy="2.854" r="2.854" transform="translate(47.721 17.757)" fill="#00bf52" stroke="#004d21" stroke-miterlimit="10" stroke-width="2.951"/><circle cx="2.854" cy="2.854" r="2.854" transform="translate(68.569 18.866)" fill="#00bf52" stroke="#004d21" stroke-miterlimit="10" stroke-width="2.951"/></g><path d="M184.914,72.873c-1.9,2.7-5.311,4.836-10.384,6.421-5.153-1.585-8.482-3.726-10.384-6.421-2.14-3.012-2.537-6.579-1.744-10.543,1.427-6.659,6.262-14.586,12.128-22.83,5.866,8.244,10.781,16.092,12.128,22.83C187.451,66.293,187.054,69.861,184.914,72.873Z" transform="translate(785.043 167.5)" fill="#00bf52"/><path d="M184.914,77.848c-1.9,2.7-5.311,4.835-10.384,6.421-5.153-1.585-8.482-3.726-10.384-6.421C162,74.836,161.608,71.269,162.4,67.3a21.232,21.232,0,0,1,24.257,0C187.451,71.269,187.054,74.836,184.914,77.848Z" transform="translate(785.043 162.525)" fill="#00b04b"/><path d="M185.469,80.107c-1.9,2.7-5.311,4.836-10.384,6.421-5.153-1.585-8.482-3.726-10.384-6.421a12.3,12.3,0,0,1,20.769,0Z" transform="translate(784.488 160.265)" fill="#008f3d"/><path d="M156.99,98.154c.238,3.726-1.11,8.086-4.518,13.159-5.707,2.22-10.305,2.7-13.952,1.665-4.122-1.11-7.055-4.043-9.275-8.165-3.646-6.976-5.153-17.44-5.945-29.013,11.336,3.092,21.4,6.659,27.586,11.653C154.453,90.465,156.673,93.953,156.99,98.154Z" transform="translate(793.07 159.975)" fill="#00bf52"/><path d="M158.545,101.2c.238,3.726-1.11,8.086-4.518,13.159-5.707,2.22-10.305,2.7-13.952,1.665-4.122-1.11-7.055-4.043-9.275-8.165a23.386,23.386,0,0,1,8.006-12.049A24.171,24.171,0,0,1,152.362,90.5C156.008,93.512,158.228,97,158.545,101.2Z" transform="translate(791.515 156.928)" fill="#00b04b"/><path d="M160.944,103.8c.238,3.726-1.11,8.086-4.518,13.159-5.707,2.22-10.305,2.7-13.952,1.665a13.742,13.742,0,0,1,5.073-12.445A13.969,13.969,0,0,1,160.944,103.8Z" transform="translate(789.116 154.328)" fill="#008f3d"/><path d="M147.167,137.912c1.031,5.232,0,11.494-3.8,19.183-7.531,4.2-13.872,5.707-19.183,4.994-5.945-.793-10.7-4.281-14.507-9.671-6.5-9.037-10.543-23.385-13.872-39.318,16.33,2.22,31.153,5.311,40.666,11.1C142.173,127.686,146.058,132.125,147.167,137.912Z" transform="translate(798.771 152.243)" fill="#00bf52"/><path d="M150.795,140.814c1.031,5.232,0,11.494-3.8,19.183-7.531,4.2-13.872,5.707-19.183,4.994-5.945-.793-10.7-4.281-14.507-9.671a33.192,33.192,0,0,1,8.878-18.311,34.008,34.008,0,0,1,17.915-9.909C145.8,130.588,149.685,135.027,150.795,140.814Z" transform="translate(795.143 149.341)" fill="#00b04b"/><path d="M154.418,144.31c1.031,5.232,0,11.494-3.8,19.183-7.531,4.2-13.872,5.707-19.183,4.994a19.486,19.486,0,0,1,4.677-18.391A20.333,20.333,0,0,1,154.418,144.31Z" transform="translate(791.52 145.844)" fill="#008f3d"/><line x1="29.172" y1="28.775" transform="translate(925.011 291.978)" fill="none" stroke="#004d21" stroke-miterlimit="10" stroke-width="3.327"/><circle cx="2.22" cy="2.22" r="2.22" transform="translate(930.956 256.623)" fill="#004d21"/><ellipse cx="2.537" cy="2.457" rx="2.537" ry="2.457" transform="translate(957.036 231.495)" fill="#004d21"/><ellipse cx="3.25" cy="3.171" rx="3.25" ry="3.171" transform="translate(921.998 288.807)" fill="#004d21"/><path d="M165.507,175.213V125.669L144.5,104.9" transform="translate(788.675 153.943)" fill="none" stroke="#004d21" stroke-miterlimit="10" stroke-width="3.327"/><path d="M189.793,98.154c-.238,3.726,1.11,8.086,4.518,13.159,5.707,2.22,10.305,2.7,13.952,1.665,4.122-1.11,7.055-4.043,9.275-8.165,3.646-6.976,5.153-17.44,5.945-29.013-11.336,3.092-21.4,6.659-27.586,11.653C192.33,90.465,190.031,93.953,189.793,98.154Z" transform="translate(779.292 159.975)" fill="#00bf52"/><path d="M189.793,101.2c-.238,3.726,1.11,8.086,4.518,13.159,5.707,2.22,10.305,2.7,13.952,1.665,4.122-1.11,7.055-4.043,9.275-8.165a23.386,23.386,0,0,0-8.006-12.049A24.171,24.171,0,0,0,195.976,90.5C192.33,93.512,190.031,97,189.793,101.2Z" transform="translate(779.292 156.928)" fill="#00b04b"/><path d="M189.793,103.8c-.238,3.726,1.11,8.086,4.518,13.159,5.707,2.22,10.305,2.7,13.952,1.665a13.742,13.742,0,0,0-5.073-12.445A14,14,0,0,0,189.793,103.8Z" transform="translate(779.292 154.328)" fill="#008f3d"/><path d="M194.8,137.912c-1.031,5.232,0,11.494,3.8,19.183,7.531,4.2,13.872,5.707,19.183,4.994,5.945-.793,10.7-4.281,14.507-9.671,6.5-9.037,10.543-23.385,13.872-39.318-16.33,2.22-31.153,5.311-40.666,11.1C199.8,127.686,195.991,132.125,194.8,137.912Z" transform="translate(778.326 152.243)" fill="#00bf52"/><path d="M194.8,140.814c-1.031,5.232,0,11.494,3.8,19.183,7.531,4.2,13.872,5.707,19.183,4.994,5.945-.793,10.7-4.281,14.507-9.671a33.192,33.192,0,0,0-8.878-18.311A34.008,34.008,0,0,0,205.5,127.1C199.8,130.588,195.991,135.027,194.8,140.814Z" transform="translate(778.326 149.341)" fill="#00b04b"/><path d="M194.8,144.309c-1.031,5.232,0,11.494,3.8,19.183,7.531,4.2,13.872,5.707,19.183,4.994a19.486,19.486,0,0,0-4.677-18.391A20,20,0,0,0,194.8,144.309Z" transform="translate(778.326 145.846)" fill="#008f3d"/><line y1="28.775" x2="29.172" transform="translate(964.963 291.978)" fill="none" stroke="#004d21" stroke-miterlimit="10" stroke-width="3.327"/><circle cx="2.22" cy="2.22" r="2.22" transform="translate(983.75 256.623)" fill="#004d21"/><ellipse cx="3.25" cy="3.171" rx="3.25" ry="3.171" transform="translate(990.647 288.807)" fill="#004d21"/><path d="M184.6,175.213V125.669L205.607,104.9" transform="translate(780.363 153.943)" fill="none" stroke="#004d21" stroke-miterlimit="10" stroke-width="3.327"/><line y1="94.491" transform="translate(959.573 234.665)" fill="none" stroke="#004d21" stroke-miterlimit="10" stroke-width="3.327"/></g></svg>